<?xml version="1.0" encoding="UTF-8" standalone="no"?>
<!-- Generator: Adobe Illustrator 19.0.0, SVG Export Plug-In . SVG Version: 6.00 Build 0)  -->

<svg
   xmlns:dc="http://purl.org/dc/elements/1.1/"
   xmlns:cc="http://creativecommons.org/ns#"
   xmlns:rdf="http://www.w3.org/1999/02/22-rdf-syntax-ns#"
   xmlns:svg="http://www.w3.org/2000/svg"
   xmlns="http://www.w3.org/2000/svg"
   xmlns:sodipodi="http://sodipodi.sourceforge.net/DTD/sodipodi-0.dtd"
   xmlns:inkscape="http://www.inkscape.org/namespaces/inkscape"
   version="1.1"
   id="Layer_1"
   x="0px"
   y="0px"
   viewBox="0 0 500.00005 500.00002"
   xml:space="preserve"
   sodipodi:docname="stdog_logo.jpg.svg"
   width="500"
   height="500"
   inkscape:version="0.92.4 5da689c313, 2019-01-14"
   inkscape:export-filename="/home/devmessias/Trabalho/projetos/phd/pkgs/stdog/stdog_logo.png"
   inkscape:export-xdpi="96"
   inkscape:export-ydpi="96"><metadata
   id="metadata49"><rdf:RDF><cc:Work
       rdf:about=""><dc:format>image/svg+xml</dc:format><dc:type
         rdf:resource="http://purl.org/dc/dcmitype/StillImage" /><dc:title></dc:title></cc:Work></rdf:RDF></metadata><defs
   id="defs47"><inkscape:path-effect
   effect="skeletal"
   id="path-effect5249"
   is_visible="true"
   pattern="M 0,5 C 0,2.24 2.24,0 5,0 7.76,0 10,2.24 10,5 10,7.76 7.76,10 5,10 2.24,10 0,7.76 0,5 Z"
   copytype="single_stretched"
   prop_scale="1.0000001"
   scale_y_rel="false"
   spacing="0"
   normal_offset="0"
   tang_offset="0"
   prop_units="false"
   vertical_pattern="false"
   fuse_tolerance="0" /><inkscape:path-effect
   effect="bspline"
   id="path-effect5247"
   is_visible="true"
   weight="33.333333"
   steps="2"
   helper_size="0"
   apply_no_weight="true"
   apply_with_weight="true"
   only_selected="false" /><inkscape:path-effect
   effect="skeletal"
   id="path-effect5243"
   is_visible="true"
   pattern="M 0,5 C 0,2.24 2.24,0 5,0 7.76,0 10,2.24 10,5 10,7.76 7.76,10 5,10 2.24,10 0,7.76 0,5 Z"
   copytype="single_stretched"
   prop_scale="1.0000001"
   scale_y_rel="false"
   spacing="0"
   normal_offset="0"
   tang_offset="0"
   prop_units="false"
   vertical_pattern="false"
   fuse_tolerance="0" /><inkscape:path-effect
   effect="bspline"
   id="path-effect5241"
   is_visible="true"
   weight="33.333333"
   steps="2"
   helper_size="0"
   apply_no_weight="true"
   apply_with_weight="true"
   only_selected="false" /><inkscape:path-effect
   effect="skeletal"
   id="path-effect5237"
   is_visible="true"
   pattern="M 0,5 C 0,2.24 2.24,0 5,0 7.76,0 10,2.24 10,5 10,7.76 7.76,10 5,10 2.24,10 0,7.76 0,5 Z"
   copytype="single_stretched"
   prop_scale="1.0000001"
   scale_y_rel="false"
   spacing="0"
   normal_offset="0"
   tang_offset="0"
   prop_units="false"
   vertical_pattern="false"
   fuse_tolerance="0" /><inkscape:path-effect
   effect="bspline"
   id="path-effect5235"
   is_visible="true"
   weight="33.333333"
   steps="2"
   helper_size="0"
   apply_no_weight="true"
   apply_with_weight="true"
   only_selected="false" /><inkscape:path-effect
   effect="skeletal"
   id="path-effect5231"
   is_visible="true"
   pattern="M 0,5 C 0,2.24 2.24,0 5,0 7.76,0 10,2.24 10,5 10,7.76 7.76,10 5,10 2.24,10 0,7.76 0,5 Z"
   copytype="single_stretched"
   prop_scale="1.0000001"
   scale_y_rel="false"
   spacing="0"
   normal_offset="0"
   tang_offset="0"
   prop_units="false"
   vertical_pattern="false"
   fuse_tolerance="0" /><inkscape:path-effect
   effect="bspline"
   id="path-effect5229"
   is_visible="true"
   weight="33.333333"
   steps="2"
   helper_size="0"
   apply_no_weight="true"
   apply_with_weight="true"
   only_selected="false" />
			
			
			
		</defs><sodipodi:namedview
   pagecolor="#ffffff"
   bordercolor="#666666"
   borderopacity="1"
   objecttolerance="10"
   gridtolerance="10"
   guidetolerance="10"
   inkscape:pageopacity="0"
   inkscape:pageshadow="2"
   inkscape:window-width="1366"
   inkscape:window-height="704"
   id="namedview45"
   showgrid="false"
   inkscape:zoom="0.32593141"
   inkscape:cx="-261.62703"
   inkscape:cy="487.0297"
   inkscape:window-x="0"
   inkscape:window-y="27"
   inkscape:window-maximized="1"
   inkscape:current-layer="g100"
   scale-x="0.4"
   fit-margin-top="0"
   fit-margin-left="0"
   fit-margin-right="0"
   fit-margin-bottom="0" />

<g
   id="g14"
   transform="matrix(2.6155664,0,0,2.6155664,-268.64629,-585.19173)">
</g>
<g
   id="g16"
   transform="matrix(2.6155664,0,0,2.6155664,-268.64629,-585.19173)">
</g>
<g
   id="g18"
   transform="matrix(2.6155664,0,0,2.6155664,-268.64629,-585.19173)">
</g>
<g
   id="g20"
   transform="matrix(2.6155664,0,0,2.6155664,-268.64629,-585.19173)">
</g>
<g
   id="g22"
   transform="matrix(2.6155664,0,0,2.6155664,-268.64629,-585.19173)">
</g>
<g
   id="g24"
   transform="matrix(2.6155664,0,0,2.6155664,-268.64629,-585.19173)">
</g>
<g
   id="g26"
   transform="matrix(2.6155664,0,0,2.6155664,-268.64629,-585.19173)">
</g>
<g
   id="g28"
   transform="matrix(2.6155664,0,0,2.6155664,-268.64629,-585.19173)">
</g>
<g
   id="g30"
   transform="matrix(2.6155664,0,0,2.6155664,-268.64629,-585.19173)">
</g>
<g
   id="g32"
   transform="matrix(2.6155664,0,0,2.6155664,-268.64629,-585.19173)">
</g>
<g
   id="g34"
   transform="matrix(2.6155664,0,0,2.6155664,-268.64629,-585.19173)">
</g>
<g
   id="g36"
   transform="matrix(2.6155664,0,0,2.6155664,-268.64629,-585.19173)">
</g>
<g
   id="g38"
   transform="matrix(2.6155664,0,0,2.6155664,-268.64629,-585.19173)">
</g>
<g
   id="g40"
   transform="matrix(2.6155664,0,0,2.6155664,-268.64629,-585.19173)">
</g>
<g
   id="g42"
   transform="matrix(2.6155664,0,0,2.6155664,-268.64629,-585.19173)">
</g>
<text
   xml:space="preserve"
   style="font-style:normal;font-variant:normal;font-weight:normal;font-stretch:normal;font-size:104.62265778px;line-height:1.25;font-family:'DejaVu Math TeX Gyre';-inkscape-font-specification:'DejaVu Math TeX Gyre';letter-spacing:0px;word-spacing:0px;fill:#000000;fill-opacity:1;stroke:none;stroke-width:2.61556625"
   x="463.35904"
   y="481.60672"
   id="text4565"><tspan
     sodipodi:role="line"
     id="tspan4563"
     x="463.35904"
     y="577.54572"
     style="stroke-width:2.61556625" /></text>








<g
   id="g890"
   transform="matrix(1.0258306,0,0,1.0258306,-113.73319,-104.34068)"
   inkscape:export-xdpi="96"
   inkscape:export-ydpi="96">
<g
   id="g100"
   transform="matrix(1.8946072,0,0,1.8946072,-99.184541,-527.03396)"><g
     id="g65"
     transform="translate(14.662905,4.4100373e-6)"><g
       inkscape:export-ydpi="96"
       inkscape:export-xdpi="96"
       transform="matrix(0.44518697,0,0,0.44518697,110.8694,375.7425)"
       id="g12"
       style="display:inline">
	<ellipse
   ry="96.378731"
   rx="63.657558"
   cy="189.2686"
   cx="314.92743"
   id="path860"
   style="opacity:1;fill:#000000;fill-opacity:1;stroke:none;stroke-width:21.78125191;stroke-miterlimit:4.30000019;stroke-dasharray:none;stroke-opacity:1" /><g
   id="g10">
		<path
   d="M 490.748,146.253 C 474.454,118.82 451.563,92.725 436.107,79.035 402.367,49.142 374.222,49.87 360.445,52.966 354.657,54.267 349.342,56.412 344.663,59.273 320.624,41.434 291.38,32.695 256,32.695 c -35.38,0 -64.625,8.739 -88.663,26.579 -4.68,-2.861 -9.994,-5.007 -15.782,-6.307 C 137.782,49.872 109.633,49.143 75.895,79.035 60.438,92.726 37.548,118.821 21.252,146.254 -0.81,183.395 -5.724,213.44 6.646,235.557 21.75,262.56 44.66,269.47 63.155,271.174 c -4.546,17.655 -7.353,36.542 -7.353,60.075 0,31.193 7.1,58.029 21.105,79.763 12.311,19.108 30.035,34.409 52.679,45.478 41.838,20.451 92.185,22.816 126.415,22.816 34.23,0 84.578,-2.365 126.415,-22.816 22.643,-11.069 40.368,-26.37 52.679,-45.478 14.004,-21.735 21.105,-48.571 21.105,-79.763 0,-23.532 -2.807,-42.419 -7.353,-60.075 18.495,-1.705 41.406,-8.616 56.509,-35.618 12.368,-22.115 7.453,-52.161 -14.608,-89.303 z M 72.878,240.307 C 56.51,239.877 43.2,236.708 33.999,220.259 c -6.242,-11.161 -1.067,-32.301 14.2,-58.002 14.489,-24.393 35.286,-48.079 48.478,-59.766 21.786,-19.304 38.118,-20.367 45.802,-19.338 -22.867,27.876 -36.883,64.104 -48.604,99.327 -4.854,14.586 -9.532,27.039 -14.058,39.084 -2.42,6.444 -4.748,12.642 -6.939,18.743 z m 162.677,102.75 c -8.107,-8.103 -12.35,-16.609 -12.35,-20.823 0,-3.763 0.645,-4.033 3.042,-5.042 6.833,-2.875 20.253,-3.207 29.753,-3.207 9.5,0 22.92,0.332 29.753,3.207 2.397,1.008 3.042,1.28 3.042,5.042 0,4.214 -4.242,12.719 -12.35,20.823 -7.973,7.968 -16.484,12.267 -20.446,12.267 -3.962,0 -12.471,-4.299 -20.444,-12.267 z m 133.098,85.278 c -24.051,11.755 -55.889,18.131 -96.983,19.394 v -64.194 c 12.304,-4.748 22.324,-13.708 26.93,-18.311 6.475,-6.471 21.535,-23.615 21.535,-42.989 0,-15.849 -7.894,-27.899 -22.228,-33.929 -9.554,-4.02 -21.696,-5.66 -41.906,-5.66 -20.21,0 -32.352,1.64 -41.907,5.66 -14.333,6.03 -22.228,18.079 -22.228,33.929 0,19.374 15.061,36.517 21.535,42.989 4.606,4.604 14.627,13.564 26.93,18.311 v 64.194 C 199.237,446.467 167.399,440.092 143.348,428.335 105.526,409.847 87.14,378.09 87.14,331.249 c 0,-40.072 9.234,-64.649 22.013,-98.664 4.413,-11.745 9.413,-25.057 14.456,-40.21 27.7,-83.236 57.002,-128.341 132.391,-128.341 75.389,0 104.691,45.106 132.39,128.341 5.042,15.154 10.044,28.465 14.456,40.21 12.779,34.015 22.013,58.591 22.013,98.664 0.001,46.841 -18.385,78.598 -56.206,97.086 z m 109.35,-208.076 c -9.202,16.451 -22.512,19.617 -38.88,20.048 -2.192,-6.102 -4.518,-12.299 -6.938,-18.743 -4.525,-12.044 -9.203,-24.498 -14.058,-39.084 -11.721,-35.223 -25.737,-71.451 -48.604,-99.327 7.684,-1.027 24.017,0.034 45.804,19.339 13.192,11.685 33.988,35.37 48.477,59.763 15.266,25.703 20.441,46.844 14.199,58.004 z"
   id="path2"
   inkscape:connector-curvature="0" /><path
   d="m 203.851,199.256 c -11.337,0 -20.564,9.321 -20.564,20.83 0,11.508 9.226,20.837 20.564,20.837 11.352,0 20.577,-9.33 20.577,-20.837 0,-11.509 -9.225,-20.83 -20.577,-20.83 z"
   id="path4"
   inkscape:connector-curvature="0" /><path
   d="m 307.995,199.093 c -11.447,0 -20.733,9.399 -20.733,20.993 0,11.594 9.286,20.993 20.733,20.993 11.434,0 20.719,-9.399 20.719,-20.993 10e-4,-11.594 -9.285,-20.993 -20.719,-20.993 z"
   id="path6"
   inkscape:connector-curvature="0"
   style="fill:#ffffff" />
	</g><g
   inkscape:groupmode="layer"
   id="layer1"
   inkscape:label="eyes" />
</g><g
       transform="matrix(0.69059727,0,0,0.69059727,105.08927,329.59888)"
       id="g997"
       inkscape:export-ydpi="96"
       inkscape:export-xdpi="96"><ellipse
         style="opacity:1;fill:#000000;fill-opacity:1;stroke:none;stroke-width:5.22559595;stroke-miterlimit:4.30000019;stroke-dasharray:none;stroke-opacity:1"
         id="path5136"
         cx="120.49689"
         cy="24.058617"
         rx="17.325401"
         ry="20.782192"
         inkscape:export-xdpi="96"
         inkscape:export-ydpi="96" /><ellipse
         ry="20.782192"
         rx="17.325401"
         cy="128.37503"
         cx="169.58698"
         id="ellipse5162"
         style="opacity:1;fill:#000000;fill-opacity:1;stroke:none;stroke-width:5.22559595;stroke-miterlimit:4.30000019;stroke-dasharray:none;stroke-opacity:1"
         inkscape:export-xdpi="96"
         inkscape:export-ydpi="96" /><ellipse
         style="opacity:1;fill:#000000;fill-opacity:1;stroke:none;stroke-width:5.22559595;stroke-miterlimit:4.30000019;stroke-dasharray:none;stroke-opacity:1"
         id="path5136-0"
         cx="289.21973"
         cy="81.809769"
         rx="17.325401"
         ry="20.782192"
         inkscape:export-xdpi="96"
         inkscape:export-ydpi="96" /><ellipse
         style="opacity:1;fill:#000000;fill-opacity:1;stroke:none;stroke-width:5.22559595;stroke-miterlimit:4.30000019;stroke-dasharray:none;stroke-opacity:1"
         id="path5136-0-0"
         cx="57.575897"
         cy="97.150421"
         rx="17.325401"
         ry="20.782192"
         inkscape:export-xdpi="96"
         inkscape:export-ydpi="96" /><ellipse
         style="opacity:1;fill:#000000;fill-opacity:1;stroke:none;stroke-width:5.22559595;stroke-miterlimit:4.30000019;stroke-dasharray:none;stroke-opacity:1"
         id="path5136-0-9"
         cx="229.39119"
         cy="35.787811"
         rx="17.325401"
         ry="20.782192"
         inkscape:export-xdpi="96"
         inkscape:export-ydpi="96" /><path
         style="fill:#000000;stroke:none;stroke-width:1px;stroke-linecap:butt;stroke-linejoin:miter;stroke-opacity:1"
         d="m 128.86147,18.703636 c 0.57866,0.465196 -1.78416,4.375079 -6.38671,11.1309 -3.72347,5.465477 -12.36344,17.528027 -18.09748,28.69339 0,10e-7 -1e-5,8e-6 -1e-5,8e-6 -2.46788,4.851975 -4.986643,10.407183 -5.80517,16.023773 -0.563656,4.073524 -0.304245,8.533115 1.71063,11.86525 2.04594,3.863316 6.05308,6.856183 10.7711,9.616806 5.83518,3.286336 12.48316,5.502577 19.7578,7.284037 9.63551,2.33667 19.79166,3.64844 30.41676,4.008 8.20715,0.27773 16.3237,-0.0253 24.18052,-0.72239 21.75699,-1.93564 42.6834,-7.635133 59.52954,-12.877246 37.20416,-11.596489 61.22056,-21.361861 61.87458,-19.796188 0.33051,0.791232 -21.97456,14.022609 -59.25127,27.567554 -16.94187,6.16501 -38.22853,12.58819 -61.21437,14.92818 -8.22148,0.83919 -16.76324,1.20595 -25.46289,0.9024 -11.25746,-0.39281 -22.10641,-1.88457 -32.43622,-4.51958 -7.81198,-1.97533 -15.26829,-4.68716 -22.06072,-8.68001 -5.59506,-3.18448 -10.677843,-7.603852 -13.886156,-13.538831 -2.905461,-5.844296 -3.163393,-12.125858 -2.021573,-17.498622 1.463643,-7.022005 4.578195,-13.128797 7.577304,-18.085458 2e-6,-2e-6 3e-6,-4e-6 5e-6,-7e-6 15.38148,-25.62956 31.10699,-36.058652 30.80433,-36.301966 z"
         id="path5233"
         inkscape:connector-curvature="0"
         inkscape:path-effect="#path-effect5235;#path-effect5237"
         inkscape:original-d="M 128.86147,18.703636 C 107.89691,44.781743 86.931355,70.860849 65.964799,96.940956 105.85317,106.14473 145.73718,115.34874 185.62188,124.55413 226.01918,107.67872 266.41697,90.803696 306.81302,73.92998"
         transform="translate(-17.593289,9.4138487)"
         inkscape:export-xdpi="96"
         inkscape:export-ydpi="96" /><path
         style="fill:#000000;stroke:none;stroke-width:1px;stroke-linecap:butt;stroke-linejoin:miter;stroke-opacity:1"
         d="m 303.74489,69.327784 c -0.86498,0.988553 -10.64951,-7.588478 -28.01062,-17.898427 0,10e-7 0,-3e-6 0,-3e-6 -9.3409,-5.564213 -21.0205,-11.011912 -35.12682,-14.80864 -7.21308,-1.941987 -14.87081,-3.479058 -23.01167,-4.579873 -7.58829,-1.020363 -15.51464,-1.661511 -23.52772,-1.532258 -1.1495,0.02272 -2.2995,0.05711 -3.44605,0.107618 -5.73428,0.252617 -11.14032,0.899482 -16.14843,2.390473 -4.75799,1.569446 -8.97581,3.370852 -11.04726,6.442182 -1.00571,1.283378 -1.69311,2.939857 -2.12612,4.685551 -0.49468,1.999745 -0.57897,4.21594 -0.48011,6.468142 0.25193,5.635951 1.94739,11.39328 3.7521,16.658694 0,0 0,7e-6 0,7e-6 2.23301,6.428186 5.03164,12.620894 7.56098,17.937082 2.43136,5.106654 5.79012,11.688672 7.67968,15.489358 3.75312,7.54763 5.94236,12.31586 7.10853,15.93379 0.35695,1.10971 0.54793,1.85536 0.56404,2.50024 0.0326,0.56543 -0.15145,0.83021 -0.32948,0.83021 -0.11485,0 -0.39068,-0.19178 -0.6331,-0.44932 -0.23819,-0.2483 -0.99228,-1.1061 -1.5613,-1.84679 -1.60536,-2.06242 -5.86772,-8.13054 -9.89418,-14.23579 -2.65201,-4.018041 -6.07175,-9.327137 -9.27489,-14.887715 -3.03158,-5.25756 -6.33068,-11.478616 -9.10568,-18.288541 0,-10e-7 -1e-5,-8e-6 -1e-5,-8e-6 -2.2646,-5.492508 -4.40636,-11.934553 -5.05231,-18.991868 -0.26288,-2.864359 -0.20326,-5.955621 0.433,-9.134094 0.57336,-2.861992 1.73493,-5.742363 3.59294,-8.364052 4.17986,-5.453713 10.09213,-8.618527 15.97498,-10.233002 6.05559,-1.819266 12.2834,-2.647987 18.55548,-2.912599 1.25454,-0.05293 2.49999,-0.08288 3.73322,-0.09448 8.67379,-0.111111 17.10558,0.651317 25.06672,1.879394 8.53837,1.310917 16.59071,3.162811 24.14442,5.49542 14.89591,4.598549 27.01865,11.164204 36.33444,17.854161 0,0 10e-6,4e-6 10e-6,4e-6 17.26458,12.433513 24.59238,23.222658 24.27521,23.585136 z"
         id="path5239"
         inkscape:connector-curvature="0"
         inkscape:path-effect="#path-effect5241;#path-effect5243"
         inkscape:original-d="M 303.74489,69.327784 C 287.38253,55.008843 271.01917,40.690903 254.65481,26.373962 c -41.9303,-2.557787 -83.86123,-5.114551 -125.79334,-7.670326 19.43292,33.237818 38.86398,66.475154 58.29447,99.714234 0.001,0.51036 0.001,1.02171 0,1.53406"
         transform="translate(-17.593289,9.4138487)"
         inkscape:export-xdpi="96"
         inkscape:export-ydpi="96" /><path
         style="fill:#000000;stroke:none;stroke-width:1px;stroke-linecap:butt;stroke-linejoin:miter;stroke-opacity:1"
         d="m 253.12074,21.771766 c -0.0681,2.759159 -27.9575,4.311216 -62.25306,3.464412 -34.29556,-0.846804 -62.07435,-3.773383 -62.00622,-6.532542 0.0681,-2.75916 27.9575,-4.311216 62.25306,-3.464412 34.29556,0.846804 62.07435,3.773383 62.00622,6.532542 z"
         id="path5245"
         inkscape:connector-curvature="0"
         inkscape:path-effect="#path-effect5247;#path-effect5249"
         inkscape:original-d="m 253.12074,21.771766 c -41.41876,-1.02371 -82.83851,-2.04642 -124.25927,-3.06813"
         transform="translate(-17.593289,9.4138487)"
         inkscape:export-xdpi="96"
         inkscape:export-ydpi="96" /></g></g></g></g></svg>